<svg width="27" height="27" viewBox="0 0 27 27" fill="none" xmlns="http://www.w3.org/2000/svg">
<path d="M13.5 20.6383C17.4084 20.6383 20.5769 17.4594 20.5769 13.538C20.5769 9.61659 17.4084 6.43768 13.5 6.43768C9.59148 6.43768 6.42303 9.61659 6.42303 13.538C6.42303 17.4594 9.59148 20.6383 13.5 20.6383Z" stroke="white" stroke-width="2.31353" stroke-linecap="round" stroke-linejoin="round"/>
<path d="M13.5 10.8754V13.538H16.1538" stroke="white" stroke-width="2.31353" stroke-linecap="round" stroke-linejoin="round"/>
<path d="M23.2308 2H3.76923C2.79211 2 2 2.79473 2 3.77507V23.3009C2 24.2812 2.79211 25.076 3.76923 25.076H23.2308C24.2079 25.076 25 24.2812 25 23.3009V3.77507C25 2.79473 24.2079 2 23.2308 2Z" stroke="white" stroke-width="2.31353" stroke-linecap="round" stroke-linejoin="round"/>
</svg>
