<svg width="31" height="29" viewBox="0 0 31 29" fill="none" xmlns="http://www.w3.org/2000/svg">
<path d="M16.532 18.4085L10.304 19.4502L11.342 13.5857L23.2374 2.57062C23.4304 2.38981 23.66 2.2463 23.913 2.14836C24.166 2.05042 24.4373 2 24.7114 2C24.9855 2 25.2568 2.05042 25.5098 2.14836C25.7628 2.2463 25.9924 2.38981 26.1854 2.57062L28.3859 4.61546C28.5805 4.79479 28.7349 5.00815 28.8403 5.24323C28.9457 5.47831 29 5.73045 29 5.98511C29 6.23978 28.9457 6.49192 28.8403 6.727C28.7349 6.96207 28.5805 7.17543 28.3859 7.35477L16.532 18.4085Z" stroke="white" stroke-width="2.31353" stroke-linecap="round" stroke-linejoin="round"/>
<path d="M25.874 19.373V25.1603C25.874 25.6719 25.6552 26.1626 25.2659 26.5243C24.8766 26.8861 24.3486 27.0894 23.798 27.0894H4.076C3.52541 27.0894 2.99737 26.8861 2.60805 26.5243C2.21872 26.1626 2 25.6719 2 25.1603V6.83391C2 6.32228 2.21872 5.83161 2.60805 5.46983C2.99737 5.10806 3.52541 4.90482 4.076 4.90482H10.304" stroke="white" stroke-width="2.31353" stroke-linecap="round" stroke-linejoin="round"/>
</svg>
